# xmcd CD database file
#
# Track frame offsets:
#	150
#	24386
#	48560
#	71677
#	101875
#	123901
#	144193
#	164200
#	189012
#	208687
#	229638
#	253611
#	270851
#	289409
#	310326
#
# Disc length: 4410 seconds
#
# Revision: 0
# Processed by: cddbd v1.5.2PL0 Copyright (c) Steve Scherf et al.
# Submitted via: CDex 1.51
#
DISCID=d811380f
DTITLE=SUN and MOON - CAFE DEL SOL 2
DYEAR=2007
DGENRE=New Age
TTITLE0=VIGGO - RED SUNSET
TTITLE1=ROBERTO SOL - BABYLON SYSDOM
TTITLE2=NACHO SOTOMAYOR - TODAY
TTITLE3=DEEP SOLUTION - TRANS-ATLANTIC JAZZ
TTITLE4=VARANO - MUSIC IS MY SOULS
TTITLE5=MARINA and FRIENDS - SO MUCH LOVE
TTITLE6=ANDRE RAFAEL - DUVIDA
TTITLE7=BIG STRING - GETTING CLOSER
TTITLE8=BRAZIL CLASSIC ORCHESTRA 1965
TTITLE9=DE MADRUGADA - SEU OLHAR
TTITLE10=LOVERS LANE - FUNKY BLISS
TTITLE11=JANICE - ONE DAY
TTITLE12=FRICTION - SANTIAGO BLUE
TTITLE13=JOJO EFFECT - MOODS
TTITLE14=DEEPER and PACIFIC feat EL MESS - SAD SAMBA
EXTD=YEAR: 2007
EXTT0=
EXTT1=
EXTT2=
EXTT3=
EXTT4=
EXTT5=
EXTT6=
EXTT7=
EXTT8=
EXTT9=
EXTT10=
EXTT11=
EXTT12=
EXTT13=
EXTT14=
PLAYORDER=
